<svg id="visual" viewBox="0 0 900 600" width="900" height="600" xmlns="http://www.w3.org/2000/svg" xmlns:xlink="http://www.w3.org/1999/xlink" version="1.1"><rect x="0" y="0" width="900" height="600" fill="#001220"></rect><path d="M0 71L21.5 67.8C43 64.7 86 58.3 128.8 56.7C171.7 55 214.3 58 257.2 62.3C300 66.7 343 72.3 385.8 74.3C428.7 76.3 471.3 74.7 514.2 73.7C557 72.7 600 72.3 642.8 75.7C685.7 79 728.3 86 771.2 84.2C814 82.3 857 71.7 878.5 66.3L900 61L900 0L878.5 0C857 0 814 0 771.2 0C728.3 0 685.7 0 642.8 0C600 0 557 0 514.2 0C471.3 0 428.7 0 385.8 0C343 0 300 0 257.2 0C214.3 0 171.7 0 128.8 0C86 0 43 0 21.5 0L0 0Z" fill="#00aff5"></path><path d="M0 69L21.5 68.8C43 68.7 86 68.3 128.8 63.5C171.7 58.7 214.3 49.3 257.2 46C300 42.7 343 45.3 385.8 47.2C428.7 49 471.3 50 514.2 50.3C557 50.7 600 50.3 642.8 53.5C685.7 56.7 728.3 63.3 771.2 62.5C814 61.7 857 53.3 878.5 49.2L900 45L900 0L878.5 0C857 0 814 0 771.2 0C728.3 0 685.7 0 642.8 0C600 0 557 0 514.2 0C471.3 0 428.7 0 385.8 0C343 0 300 0 257.2 0C214.3 0 171.7 0 128.8 0C86 0 43 0 21.5 0L0 0Z" fill="#007b9e"></path><path d="M0 26L21.5 25.2C43 24.3 86 22.7 128.8 25.7C171.7 28.7 214.3 36.3 257.2 36.3C300 36.3 343 28.7 385.8 28C428.7 27.3 471.3 33.7 514.2 36.7C557 39.7 600 39.3 642.8 35.3C685.7 31.3 728.3 23.7 771.2 22.5C814 21.3 857 26.7 878.5 29.3L900 32L900 0L878.5 0C857 0 814 0 771.2 0C728.3 0 685.7 0 642.8 0C600 0 557 0 514.2 0C471.3 0 428.7 0 385.8 0C343 0 300 0 257.2 0C214.3 0 171.7 0 128.8 0C86 0 43 0 21.5 0L0 0Z" fill="#054752"></path></svg>