<svg id="visual" viewBox="0 0 900 600" width="900" height="600" xmlns="http://www.w3.org/2000/svg" xmlns:xlink="http://www.w3.org/1999/xlink" version="1.1"><rect x="0" y="0" width="900" height="600" fill="#001220"></rect><path d="M0 107L21.5 102.3C43 97.7 86 88.3 128.8 86C171.7 83.7 214.3 88.3 257.2 94.8C300 101.3 343 109.7 385.8 112.5C428.7 115.3 471.3 112.7 514.2 111.2C557 109.7 600 109.3 642.8 114.5C685.7 119.7 728.3 130.3 771.2 127.5C814 124.7 857 108.3 878.5 100.2L900 92L900 0L878.5 0C857 0 814 0 771.2 0C728.3 0 685.7 0 642.8 0C600 0 557 0 514.2 0C471.3 0 428.7 0 385.8 0C343 0 300 0 257.2 0C214.3 0 171.7 0 128.8 0C86 0 43 0 21.5 0L0 0Z" fill="#00aff5"></path><path d="M0 104L21.5 103.7C43 103.3 86 102.7 128.8 95.5C171.7 88.3 214.3 74.7 257.2 69.8C300 65 343 69 385.8 71.8C428.7 74.7 471.3 76.3 514.2 76.7C557 77 600 76 642.8 80.5C685.7 85 728.3 95 771.2 93.8C814 92.7 857 80.3 878.5 74.2L900 68L900 0L878.5 0C857 0 814 0 771.2 0C728.3 0 685.7 0 642.8 0C600 0 557 0 514.2 0C471.3 0 428.7 0 385.8 0C343 0 300 0 257.2 0C214.3 0 171.7 0 128.8 0C86 0 43 0 21.5 0L0 0Z" fill="#007b9e"></path><path d="M0 39L21.5 37.8C43 36.7 86 34.3 128.8 38.8C171.7 43.3 214.3 54.7 257.2 54.7C300 54.7 343 43.3 385.8 42.3C428.7 41.3 471.3 50.7 514.2 55.2C557 59.7 600 59.3 642.8 53.5C685.7 47.7 728.3 36.3 771.2 34.5C814 32.7 857 40.3 878.5 44.2L900 48L900 0L878.5 0C857 0 814 0 771.2 0C728.3 0 685.7 0 642.8 0C600 0 557 0 514.2 0C471.3 0 428.7 0 385.8 0C343 0 300 0 257.2 0C214.3 0 171.7 0 128.8 0C86 0 43 0 21.5 0L0 0Z" fill="#054752"></path></svg>