<?xml version="1.0" encoding="UTF-8"?>
<svg id="Layer_1" data-name="Layer 1" xmlns="http://www.w3.org/2000/svg" viewBox="0 0 236.19 82.21">
  <defs>
    <style>
      .cls-1 {
        fill: none;
        stroke: #fff;
        stroke-miterlimit: 10;
        stroke-width: 2px;
      }
    </style>
  </defs>
  <path class="cls-1" d="m22.64,66.16c-1.91-.66-4.24-1.29-6.93-1.69-3.69-.54-6.91-.47-9.4-.22.92-.23,1.85-.46,2.77-.69l-1.69-7.24c-.82-.04-1.65-.09-2.47-.13v-6.24c.48-.14.95-.29,1.43-.43.17-3,.35-6.01.52-9.01.79-.83,2-1.99,3.64-3.12,3.94-2.71,7.66-3.42,11.44-4.16,14.74-2.89,12.03-2.68,15.42-3.12,12.06-1.56,23.34-1.18,31.37-.52,3.61-2.34,7.54-4.67,11.78-6.93,10.1-5.38,19.72-9.13,28.25-11.78,14.44-1.43,26.7-1.52,36.05-1.21,22.57.74,31.61,3.88,33.79,4.68,7.77,2.85,10.92,4.16,10.92,4.16,6.2,2.59,8.06,3.76,12.3,4.68,1.74.38,4.11.6,8.84,1.04,6.41.6,9.79.6,12.48,2.95.55.48,1.67,1.48,2.25,3.12.65,1.82-.1,2.39.35,4.16.58,2.31,2.08,2.26,3.81,5.37,1.17,2.11,1.5,3.94,1.56,4.33.4,2.47-.15,4.3-.69,6.41-2.35,9.13-.97,9.65-2.6,11.26-1.48,1.47-1.97.39-10.92,3.12-1.43.44-2.66.84-4.51,1.04-2.59.28-4.77-.03-6.24-.35"/>
  <path class="cls-1" d="m51.63,46.27c-5.94-4.8-14.04-5.3-19.92-1.43-5.37,3.53-7.5,9.82-7.05,15.14.69,8.08,7.56,15.69,16.64,15.83,9.02.14,16.83-7.14,17.29-16.48-5.92.02-11.83.05-17.75.07.14,1.4.29,2.8.43,4.2,3.6-.09,7.19-.17,10.79-.26-.52,1.04-1.58,2.82-3.55,4.33-.95.73-3.74,2.86-7.63,2.47-4.66-.46-7.16-4.16-7.5-4.68-1.61-2.47-1.67-4.93-1.69-6.07-.02-1.2-.09-6.52,3.94-9.45,3.3-2.39,8.15-2.31,12.09.26,1.3-1.31,2.6-2.63,3.9-3.94Z"/>
  <path class="cls-1" d="m187.92,42.53c-8.97-.04-16.51,7.65-16.29,16.75.22,9.13,8.17,16.58,17.33,15.94,9.06-.63,15.74-8.89,15.02-17.68-.68-8.24-7.7-14.98-16.06-15.02Z"/>
  <path class="cls-1" d="m61.64,67.6c15.91-.11,46.71-.34,62.62-.46,8.54-.07,35.25-.28,43.79-.35"/>
  <path class="cls-1" d="m187.82,48.14c-5.36.24-9.67,4.52-10.17,9.59-.59,6.04,4.36,11.85,10.74,11.78,6.36-.06,11.26-5.91,10.51-12.02-.65-5.35-5.49-9.61-11.09-9.36Z"/>
  <path class="cls-1" d="m9.96,46.46c.72-1.23,2.02-3.07,4.19-4.62,4.1-2.94,8.49-2.86,9.96-2.77-.9,1.42-2.19,3.13-3.99,4.82-1.13,1.06-2.24,1.9-3.24,2.57h-6.93Z"/>
  <path class="cls-1" d="m227.4,37.42c-.91.04-2.21.07-3.78.06-4.2-.04-5.1-.38-5.78-.84-1.01-.67-2.27-2.06-1.96-3.24.35-1.34,2.56-1.77,4.16-2.08,2.27-.44,4.25-.21,5.63.09"/>
</svg>