<?xml version="1.0" encoding="UTF-8"?>
<svg id="Layer_1" data-name="Layer 1" xmlns="http://www.w3.org/2000/svg" viewBox="0 0 100 100">
  <defs>
    <style>
      .cls-1 {
        fill: #fff;
      }

      .cls-2 {
        stroke: #00aff5;
      }

      .cls-2, .cls-3 {
        fill: none;
        stroke-miterlimit: 10;
        stroke-width: 2px;
      }

      .cls-3 {
        stroke: #054752;
      }
    </style>
  </defs>
  <rect class="cls-1" x="8.89" y="8.89" width="82.21" height="82.21" rx="20.87" ry="20.87"/>
  <path class="cls-3" d="m31.54,75.06c-1.91-.66-4.24-1.3-6.93-1.69-3.69-.55-6.91-.47-9.41-.22.93-.23,1.85-.46,2.78-.69-.57-2.42-1.13-4.83-1.69-7.24-.83-.04-1.65-.09-2.47-.13v-6.24c.47-.14.95-.29,1.43-.43.17-3.01.34-6.01.52-9.01.78-.84,1.99-1.99,3.64-3.12,3.93-2.72,7.65-3.42,11.43-4.16,14.75-2.89,12.04-2.68,15.43-3.12,12.06-1.56,23.34-1.19,31.37-.52,3.61-2.34,7.53-4.67,11.78-6.93.56-.3,1.13-.6,1.69-.89"/>
  <path class="cls-2" d="m60.52,55.16c-5.94-4.8-14.04-5.3-19.92-1.43-5.37,3.53-7.5,9.82-7.05,15.14.69,8.08,7.56,15.69,16.64,15.83,9.02.14,16.83-7.14,17.29-16.48-5.92.02-11.83.05-17.75.07.14,1.4.29,2.8.43,4.2,3.6-.09,7.19-.17,10.79-.26-.52,1.04-1.58,2.82-3.55,4.33-.95.73-3.74,2.86-7.63,2.47-4.66-.46-7.16-4.16-7.5-4.68-1.61-2.47-1.67-4.93-1.69-6.07-.02-1.2-.09-6.52,3.94-9.45,3.3-2.39,8.15-2.31,12.09.26,1.3-1.31,2.6-2.63,3.9-3.94Z"/>
  <path class="cls-2" d="m63.16,58.62c-1.73,0-3.18,1.47-3.14,3.23.04,1.76,1.57,3.19,3.34,3.07,1.74-.12,3.03-1.71,2.89-3.4-.13-1.59-1.48-2.88-3.09-2.89Z"/>
  <path class="cls-3" d="m90.19,76.36c-7.46.05-14.38.1-19.66.14"/>
  <path class="cls-3" d="m18.86,55.35c.72-1.23,2.02-3.07,4.19-4.62,4.1-2.94,8.49-2.86,9.96-2.77-.9,1.42-2.19,3.13-3.99,4.82-1.13,1.06-2.24,1.9-3.24,2.57h-6.93Z"/>
</svg>